<svg width="24" height="24" viewBox="0 0 24 24" fill="none" xmlns="http://www.w3.org/2000/svg">
  <path d="M3 22H21" stroke="#DBFF8B" stroke-width="1.5" stroke-linecap="round" stroke-linejoin="round"/>
  <path d="M12 7V17M12 7C12 5.34 13.34 4 15 4C16.66 4 18 5.34 18 7C18 8.66 16.66 10 15 10C13.34 10 12 8.66 12 7ZM12 7C12 5.34 10.66 4 9 4C7.34 4 6 5.34 6 7C6 8.66 7.34 10 9 10C10.66 10 12 8.66 12 7Z" stroke="#DBFF8B" stroke-width="1.5" stroke-linecap="round" stroke-linejoin="round"/>
  <path d="M12 17C9 17 6.6 15.6 5.5 13.5C4.7 12 4.3 10 4.1 8.7C4.04 8.24 4 7.77 4 7.28C4 7.19 4 7.1 4 7" stroke="#DBFF8B" stroke-width="1.5" stroke-linecap="round" stroke-linejoin="round"/>
  <path d="M20 7C20 7 20 9 19.2 11.2C18.2 14 15.7 16.4 12 17" stroke="#DBFF8B" stroke-width="1.5" stroke-linecap="round" stroke-linejoin="round"/>
  <path d="M12 17V22" stroke="#DBFF8B" stroke-width="1.5" stroke-linecap="round" stroke-linejoin="round"/>
</svg> 