<?xml version="1.0" encoding="UTF-8"?>
<svg id="Camada_2" data-name="Camada 2" xmlns="http://www.w3.org/2000/svg" viewBox="0 0 371.55 371.56">
  <defs>
    <style>
      .cls-1 {
        fill: #1d4b2d;
      }

      .cls-2 {
        fill: #512a73;
      }

      .cls-3 {
        fill: #dae49f;
      }
    </style>
  </defs>
  <g id="Camada_1-2" data-name="Camada 1">
    <g>
      <path class="cls-3" d="M367.72,148.39c20.65,100.48-44.07,198.68-144.55,219.32C122.68,388.36,24.49,323.65,3.84,223.16-16.81,122.68,47.91,24.49,148.39,3.84c100.48-20.65,198.68,44.07,219.32,144.55"/>
      <path class="cls-1" d="M76.52,248.6l-5.81,2.76c.52-1.5,1.1-4.54-1.08-9.07-1.57-3.26-3.13-3.83-4.49-3.17-4.3,2.07,4.14,12.76-4.16,16.76-3.71,1.79-7.62.66-10.58-5.49-1.63-3.38-1.87-5.96-1.47-7.63l5.47-2.39c-.85,1.57-.88,4.92.51,7.81,1.19,2.47,2.66,2.85,3.7,2.35,3.68-1.77-4.19-11.7,4.31-15.79,4.4-2.12,8.64-.47,11.71,5.91,1.44,3,2,5.73,1.9,7.95Z"/>
      <path class="cls-1" d="M45.05,237.33l-5.1-17.03,4.78-1.43,3.65,12.18,4.64-1.39-3.61-12.05,4.78-1.43,3.61,12.05,5.26-1.57-3.73-12.46,4.78-1.43,5.18,17.31-24.23,7.25Z"/>
      <path class="cls-1" d="M38.17,213.63l-.62-6.51,14.38-8.69-15.74-5.66-.62-6.51,25.18-2.38.48,5.04-17.12,1.62,12.16,4.66.53,5.65-11.13,7.01,17.2-1.63.48,5.04-25.18,2.38Z"/>
      <path class="cls-1" d="M36.07,179.45l1.79-17.69,4.96.5-1.28,12.65,4.82.49,1.27-12.51,4.96.5-1.27,12.51,5.46.55,1.31-12.94,4.96.5-1.82,17.97-25.16-2.54Z"/>
      <path class="cls-1" d="M40.71,149.06l1.48-5.44,26.42-.77-1.39,5.13-5.35-.03-1.98,7.29,4.63,2.68-1.4,5.16-22.41-14.02ZM56.93,147.92l-9.89-.1,8.58,4.95,1.32-4.85Z"/>
      <path class="cls-1" d="M46.21,130.94l1.92-4.13,18.22-2.08-14.19-6.6,2.01-4.32,22.93,10.67-1.91,4.1-18.34,2.07,14.28,6.64-2.01,4.32-22.93-10.67Z"/>
      <path class="cls-1" d="M57.34,108.12l4.91-6.97c4.37-6.2,11.13-8.34,17.92-3.55,6.82,4.81,7.12,11.91,2.75,18.12l-4.91,6.97-20.68-14.56ZM78.91,112.89c2.83-4.02,2.48-8.11-1.68-11.04-4.2-2.95-8.16-1.9-10.99,2.11l-2,2.84,12.67,8.93,2-2.84Z"/>
      <path class="cls-1" d="M82.44,94.85c-6-6.26-4.91-13.27-.34-17.64,4.54-4.35,11.58-5.15,17.58,1.11,6.03,6.29,4.96,13.32.42,17.67-4.57,4.38-11.63,5.15-17.66-1.14ZM95.95,81.95c-3.8-3.97-7.8-3.33-10.25-.98-2.48,2.38-3.28,6.34.52,10.31,3.78,3.94,7.78,3.31,10.25.93,2.45-2.35,3.25-6.32-.52-10.26Z"/>
      <path class="cls-1" d="M114.89,81.31l-3.21-5.58c1.53.4,4.61.74,8.95-1.79,3.12-1.82,3.57-3.42,2.8-4.73-2.4-4.12-12.4,5.14-17.04-2.82-2.07-3.56-1.26-7.55,4.64-10.99,3.25-1.89,5.79-2.33,7.49-2.07l2.82,5.26c-1.63-.72-4.97-.49-7.75,1.13-2.37,1.38-2.63,2.87-2.05,3.87,2.06,3.53,11.33-5.1,16.08,3.05,2.46,4.21,1.15,8.57-4.97,12.14-2.87,1.67-5.56,2.45-7.77,2.52Z"/>
      <path class="cls-1" d="M129.49,46.77l5.26-2.03,16.26,20.83-4.95,1.91-3.14-4.32-7.04,2.72.58,5.31-4.99,1.93-1.97-26.35ZM140.01,59.17l-5.78-8.03,1.09,9.84,4.68-1.81Z"/>
      <path class="cls-1" d="M149.78,58.27l-3.68-17.43,4.95-1.04,3.53,16.72c.56,2.65,2.42,3.59,4.86,3.07,2.37-.5,3.84-2.1,3.27-4.79l-3.53-16.72,4.95-1.04,3.68,17.43c1.22,5.76-3.47,8.75-7.47,9.59-3.92.83-9.36-.06-10.56-5.78ZM151.82,35.9l1.22-5.43,3.25,1.38-3.09,4.6-1.37-.56Z"/>
      <path class="cls-1" d="M171.13,36.07l8.52-.25c7.58-.22,13.34,3.92,13.58,12.22.24,8.34-5.27,12.84-12.85,13.06l-8.52.25-.73-25.28ZM180.24,56.2c4.91-.14,7.98-2.87,7.83-7.96-.15-5.13-3.37-7.67-8.28-7.53l-3.47.1.45,15.5,3.47-.1Z"/>
      <path class="cls-1" d="M198.81,35.97l17.6,2.53-.71,4.94-12.59-1.81-.69,4.79,12.45,1.79-.71,4.94-12.45-1.79-.78,5.44,12.88,1.85-.71,4.94-17.88-2.57,3.6-25.04Z"/>
      <path class="cls-1" d="M215.33,62.41c.31-1.23,1.55-1.99,2.81-1.67,1.23.31,1.98,1.59,1.67,2.81l-3.58,5.28-1.47-.37,2.1-3.27c-1.09-.28-1.84-1.55-1.53-2.78Z"/>
      <path class="cls-1" d="M233.32,56.56c3.29-8.02,10.04-9.9,16.09-7.42,1.94.79,3.93,2.12,5.25,3.95l-2.06,5.01c-1.22-1.87-2.9-3.22-4.8-4-3.64-1.5-7.6-.62-9.7,4.5-2.06,5.01-.03,8.35,3.75,9.9,2.01.82,4.33,1.07,6.65.46l-2.15,5.25c-2.04.41-4.61-.09-6.71-.96-6.15-2.52-9.62-8.64-6.31-16.69Z"/>
      <path class="cls-1" d="M251.65,70.44l9.86-14.84,4.21,2.8-9.46,14.23c-1.5,2.26-.87,4.24,1.21,5.62,2.02,1.34,4.19,1.27,5.71-1.02l9.46-14.23,4.21,2.8-9.86,14.84c-3.26,4.91-8.67,3.65-12.07,1.39-3.34-2.22-6.51-6.72-3.27-11.59Z"/>
      <path class="cls-1" d="M282.12,70.03l3.7,3.45-13.86,14.84,9.51,8.88-3.4,3.64-13.2-12.33,17.26-18.48Z"/>
      <path class="cls-1" d="M295.44,90.29l-4.24-5.02,3.81-3.22,11.72,13.89-3.81,3.22-4.24-5.03-15.52,13.1-3.24-3.84,15.52-13.1Z"/>
      <path class="cls-1" d="M309.15,99.71l2.81,4.16-20.95,14.17-2.81-4.16,20.95-14.17Z"/>
      <path class="cls-1" d="M314.32,107.55l2.59,4.64-13.04,13.19,18.06-4.19,2.6,4.67-25.82,5.63-2.75-4.92,18.36-19.01Z"/>
      <path class="cls-1" d="M327.38,134.82l1.81,5.34-21.5,15.37-1.71-5.03,4.45-2.96-2.42-7.15-5.33.36-1.72-5.06,26.41-.86ZM314.55,144.81l8.27-5.43-9.88.68,1.61,4.76Z"/>
      <path class="cls-1" d="M332.91,152.93l.71,4.5-13.97,11.89,15.46-2.43.74,4.71-24.99,3.93-.7-4.46,14.07-11.94-15.56,2.45-.74-4.71,24.99-3.93Z"/>
      <path class="cls-1" d="M336.4,178.01l-.17,8.53c-.15,7.59-4.56,13.14-12.87,12.97-8.34-.17-12.57-5.89-12.41-13.48l.17-8.53,25.29.51ZM315.85,186.13c-.1,4.91,2.47,8.11,7.57,8.21,5.13.1,7.83-2.99,7.93-7.9l.07-3.47-15.5-.31-.07,3.47Z"/>
      <path class="cls-1" d="M323.02,203.04c8.48,1.83,11.49,8.24,10.16,14.42-1.32,6.15-6.71,10.75-15.19,8.93-8.51-1.83-11.57-8.26-10.24-14.4,1.33-6.18,6.76-10.78,15.27-8.95ZM319.05,221.3c5.37,1.16,8.33-1.61,9.04-4.93.72-3.36-.84-7.09-6.21-8.25-5.33-1.15-8.29,1.61-9.02,4.97-.71,3.32.85,7.06,6.18,8.21Z"/>
      <path class="cls-1" d="M324.97,243.43l-7.78,15.98-4.48-2.18,5.57-11.44-4.35-2.12-5.51,11.31-4.48-2.18,5.51-11.31-4.94-2.4-5.7,11.69-4.48-2.18,7.91-16.24,22.74,11.07Z"/>
      <path class="cls-1" d="M313.98,265.55l-3.96,5.2-16.47-3.36,7.73,14.83-3.96,5.2-20.12-15.32,3.06-4.02,13.68,10.42-5.78-11.67,3.44-4.51,12.93,2.4-13.74-10.46,3.06-4.02,20.12,15.32Z"/>
      <path class="cls-1" d="M278.16,288.23c5.34,6.83,3.63,13.63-1.53,17.65-1.65,1.29-3.79,2.37-6.04,2.61l-3.34-4.27c2.23-.14,4.23-.92,5.85-2.19,3.1-2.42,4.3-6.29.9-10.65-3.34-4.27-7.24-4.16-10.46-1.65-1.71,1.33-3.07,3.23-3.69,5.54l-3.49-4.47c.65-1.98,2.37-3.96,4.16-5.36,5.24-4.09,12.27-4.08,17.63,2.78Z"/>
      <path class="cls-1" d="M260.44,301.96c4.02,7.68,1.02,14.11-4.58,17.04-5.57,2.92-12.56,1.72-16.58-5.96-4.04-7.71-1.06-14.17,4.51-17.09,5.6-2.93,12.61-1.71,16.65,6.01ZM243.88,310.59c2.55,4.87,6.56,5.37,9.57,3.8,3.04-1.59,4.91-5.18,2.37-10.05-2.53-4.83-6.55-5.34-9.59-3.75-3.01,1.58-4.88,5.17-2.35,10Z"/>
      <path class="cls-1" d="M238.79,326.9l-6.31,1.71-11-12.71-2.91,16.47-6.31,1.71-6.61-24.41,4.88-1.32,4.5,16.6,2.53-12.78,5.48-1.48,8.79,9.79-4.51-16.67,4.88-1.32,6.61,24.41Z"/>
      <path class="cls-1" d="M203.66,317.07l1.1,17.78-5.05.31-1.06-17.06c-.17-2.71-1.87-3.9-4.36-3.75-2.42.15-4.11,1.52-3.94,4.26l1.06,17.06-5.05.31-1.1-17.78c-.36-5.88,4.71-8.15,8.78-8.4,4-.25,9.25,1.42,9.61,7.26Z"/>
      <path class="cls-1" d="M179.53,335.86l-4.53-.49-7.85-16.58-1.67,15.56-4.74-.51,2.7-25.15,4.49.48,7.87,16.69,1.68-15.66,4.74.51-2.7,25.15Z"/>
      <path class="cls-1" d="M155.56,332.57l-4.9-1.1,5.56-24.67,4.9,1.1-5.56,24.67Z"/>
      <path class="cls-1" d="M145.24,330.42l-8.02-2.89c-7.14-2.57-10.98-8.53-8.16-16.35,2.83-7.85,9.61-10.02,16.74-7.44l8.02,2.89-8.58,23.79ZM144.13,308.36c-4.62-1.67-8.47-.25-10.2,4.54-1.74,4.83.32,8.38,4.94,10.04l3.26,1.18,5.26-14.58-3.26-1.18Z"/>
      <path class="cls-1" d="M115.77,318.12l-5-2.61,4.93-25.96,4.71,2.46-1.18,5.21,6.69,3.5,3.61-3.94,4.74,2.48-18.5,18.87ZM118.14,302.03l-2.23,9.64,6.68-7.31-4.45-2.33Z"/>
      <path class="cls-1" d="M98.94,308.22l-6.57-5.43c-5.85-4.84-7.45-11.74-2.15-18.15,5.32-6.43,12.43-6.18,18.27-1.34l6.57,5.43-16.12,19.49ZM105.36,287.08c-3.79-3.13-7.89-3.1-11.14.82-3.27,3.95-2.53,7.99,1.26,11.12l2.67,2.21,9.88-11.95-2.67-2.21Z"/>
      <path class="cls-1" d="M78.03,290.04l-11.52-13.54,3.8-3.23,8.24,9.69,3.69-3.14-8.15-9.58,3.8-3.23,8.15,9.58,4.18-3.56-8.43-9.9,3.8-3.23,11.71,13.76-19.26,16.4Z"/>
      <path class="cls-2" d="M201.45,214.6c11.52.08,40.37-2.11,64.06-23.73-25.57-3.84-46.88,4.67-59.17,11.52,12.48-10.91,34.05-34.35,39.43-69.67-33.37,19.59-46.78,51.67-51.32,66.05,1.56-15.88,2.13-55.49-24.36-90.54-11.4,46.23,8.51,84.85,15.06,95.85-7.58-9.51-33.54-38.06-75.61-43.37,17.29,27.79,43.14,41.06,59.47,47.01-14.38-.75-34.98,1.13-54.82,13.41,31.19,10.84,59.33,1.01,69.88-3.65-6.44,5.55-15.34,15.54-18.56,30.28,16.92-8.53,24.36-23.88,26.9-30.55,4.97,5.13,17.85,16.3,36.77,17.47-8.32-11.65-19.66-17.35-27.72-20.09"/>
    </g>
  </g>
</svg>