<svg xmlns="http://www.w3.org/2000/svg" viewBox="0 0 300 320" fill="none">
  <defs>
    <linearGradient id="leafGradient1" x1="0%" y1="0%" x2="100%" y2="100%">
      <stop offset="0%" stop-color="#a8e063" />
      <stop offset="100%" stop-color="#d0f288" />
    </linearGradient>
    <linearGradient id="leafGradient2" x1="0%" y1="0%" x2="100%" y2="100%">
      <stop offset="0%" stop-color="#8fd859" />
      <stop offset="100%" stop-color="#c4e97e" />
    </linearGradient>
    <linearGradient id="stemGradient" x1="0%" y1="0%" x2="100%" y2="0%">
      <stop offset="0%" stop-color="#8ec741" />
      <stop offset="100%" stop-color="#5b8e33" />
    </linearGradient>
    <filter id="shadowEffect" x="-10%" y="-10%" width="120%" height="120%">
      <feGaussianBlur in="SourceAlpha" stdDeviation="4" />
      <feOffset dx="2" dy="4" result="offsetblur" />
      <feComponentTransfer>
        <feFuncA type="linear" slope="0.3" />
      </feComponentTransfer>
      <feMerge>
        <feMergeNode />
        <feMergeNode in="SourceGraphic" />
      </feMerge>
    </filter>
  </defs>

  <!-- Caule -->
  <path d="M150 290C150 290 160 160 150 130C140 100 140 80 150 50" stroke="url(#stemGradient)" stroke-width="8" stroke-linecap="round" />

  <!-- Folhas -->
  <path d="M150 130C150 130 120 80 80 100C40 120 60 170 90 170C120 170 150 130 150 130Z" fill="url(#leafGradient1)" filter="url(#shadowEffect)" />
  
  <path d="M150 180C150 180 190 140 230 160C270 180 250 230 220 230C190 230 150 180 150 180Z" fill="url(#leafGradient1)" filter="url(#shadowEffect)" />
  
  <path d="M150 100C150 100 180 60 210 70C240 80 230 130 200 140C170 150 150 100 150 100Z" fill="url(#leafGradient2)" filter="url(#shadowEffect)" />
  
  <path d="M150 210C150 210 110 180 80 190C50 200 60 250 90 260C120 270 150 210 150 210Z" fill="url(#leafGradient2)" filter="url(#shadowEffect)" />
  
  <!-- Folha do topo -->
  <path d="M150 50C150 50 180 20 150 10C120 0 110 30 130 50C140 60 150 50 150 50Z" fill="url(#leafGradient1)" filter="url(#shadowEffect)" />

  <!-- Detalhes das folhas - nervuras -->
  <path d="M150 130C150 130 120 120 90 140" stroke="#8ec741" stroke-width="2" stroke-linecap="round" />
  <path d="M150 180C150 180 180 190 210 180" stroke="#8ec741" stroke-width="2" stroke-linecap="round" />
  <path d="M150 100C150 100 170 90 190 100" stroke="#8ec741" stroke-width="2" stroke-linecap="round" />
  <path d="M150 210C150 210 130 230 110 230" stroke="#8ec741" stroke-width="2" stroke-linecap="round" />
</svg> 