<?xml version="1.0" encoding="UTF-8"?>
<svg id="Camada_1" data-name="Camada 1" xmlns="http://www.w3.org/2000/svg" viewBox="0 0 925.31 1244.71">
  <defs>
    <style>
      .cls-1 {
        fill: #b39ccb;
      }

      .cls-2 {
        fill: #d1d376;
      }
    </style>
  </defs>
  <path class="cls-2" d="M467.18,1143.99c-185.25,0-335.96-150.71-335.96-335.96v-73.75c0-7.58,6.15-13.73,13.73-13.73s13.73,6.14,13.73,13.73v73.75c0,170.11,138.39,308.5,308.5,308.5s308.5-138.39,308.5-308.5v-71.06c0-7.58,6.15-13.73,13.73-13.73s13.73,6.15,13.73,13.73v71.06c0,185.25-150.71,335.96-335.96,335.96"/>
  <path class="cls-2" d="M598.69,1020.88c-58.98,0-120.45-25.82-183.16-77.02-138.72-113.25-236.88-15.32-241-11.1-3.51,3.62-9.31,3.71-12.93.19-3.63-3.51-3.73-9.29-.22-12.92,1.12-1.16,113.7-114.48,265.73,9.65,69.33,56.6,136.29,80.43,199.06,70.81,86.53-13.26,135.91-86.94,136.4-87.69,2.78-4.22,8.45-5.4,12.67-2.63,4.23,2.77,5.41,8.43,2.64,12.66-2.16,3.3-54.06,81.09-148.71,95.71-10.07,1.56-20.23,2.33-30.47,2.33"/>
  <path class="cls-2" d="M591.03,943.99c-47.93-1.76-106.59-24.55-169.43-95.24-34.6-38.92-74.19-59.59-117.7-61.43-81.95-3.47-150.95,61.28-151.64,61.93-1.83,1.74-4.72,1.67-6.46-.16-1.74-1.83-1.67-4.73.16-6.47,2.92-2.78,72.55-68.01,158.27-64.45,46.1,1.93,87.89,23.63,124.22,64.5,88.8,99.89,168.14,100.87,219.07,84.09,80.4-26.49,134.69-111.52,140.74-178.42.23-2.52,2.39-4.38,4.97-4.14,2.52.23,4.37,2.45,4.14,4.97-6.31,69.85-63.02,158.63-146.99,186.29-17.01,5.6-37.02,9.36-59.35,8.54"/>
  <path class="cls-2" d="M144.95,598.78c-7.58,0-13.73-6.15-13.73-13.73v-118.08c0-185.25,150.71-335.96,335.96-335.96s335.95,150.71,335.95,335.96v114.2c0,7.58-6.15,13.73-13.73,13.73s-13.73-6.15-13.73-13.73v-114.2c0-170.11-138.39-308.5-308.5-308.5S158.67,296.87,158.67,466.98v118.08c0,7.58-6.15,13.73-13.73,13.73"/>
  <path class="cls-1" d="M544.55,412.93c0,106.83-77.38,193.44-77.38,193.44,0,0-77.38-86.61-77.38-193.44s34.65-193.44,77.38-193.44,77.38,86.61,77.38,193.44"/>
  <path class="cls-1" d="M648.95,556.83c-53.8,53.8-136.37,58.44-136.37,58.44,0,0,4.65-82.57,58.45-136.37,53.8-53.8,114.85-79.96,136.37-58.44,21.52,21.52-4.65,82.57-58.45,136.37"/>
  <path class="cls-1" d="M286.9,556.83c53.8,53.8,136.37,58.44,136.37,58.44,0,0-4.65-82.57-58.45-136.37s-114.85-79.96-136.37-58.44c-21.52,21.52,4.65,82.57,58.45,136.37"/>
  <path class="cls-1" d="M256.01,708.75c92.73,0,167.9-55.1,167.9-55.1,0,0-75.17-55.1-167.9-55.1s-167.9,24.67-167.9,55.1,75.17,55.1,167.9,55.1"/>
  <path class="cls-1" d="M680.48,708.75c-92.73,0-167.9-55.1-167.9-55.1,0,0,75.17-55.1,167.9-55.1s167.9,24.67,167.9,55.1-75.17,55.1-167.9,55.1"/>
  <path class="cls-1" d="M542.65,1012.79c-9.95,8.8-21.25,16.16-33.38,21.94-26.54,12.64-57.65,12.64-84.19,0-12.14-5.77-23.43-13.14-33.38-21.94-31.88-28.18-49.38-70.53-46.25-111.88,3.88-51.14,36.49-95.55,66.64-137.99,23.86-33.6,47.57-70.11,55.08-109.27,7.51,39.16,31.22,75.67,55.08,109.27,30.15,42.45,62.76,86.85,66.64,137.99,3.13,41.35-14.37,83.7-46.25,111.88"/>
</svg>